<?xml version="1.0" encoding="UTF-8"?>
<svg id="Layer_2" data-name="Layer 2" xmlns="http://www.w3.org/2000/svg" viewBox="0 0 768.06 112.7">
  <g id="Swatch_Info_Layer" data-name="Swatch Info Layer">
    <g id="Bento_Grid" data-name="Bento Grid">
      <path fill="#ffffff" d="M768.06,104.53c0-.36-5.57-.65-12.38-.65H92.76c-6.81,0-8.63-4.12-4.04-9.15,0,0,14.41-15.82,14.41-33.59,0-23.05-26.09-41.94-26.09-41.94-5.51-3.99-14.86-10.02-20.77-13.41,0,0-10.11-5.79-22.82-5.79-8.58,0-13.04,1.68-13.04,1.68-6.37,2.39-11.58,3.45-11.58,2.35s-.29-2-.65-2-.65,5.57-.65,12.38v7.58c0,6.81-2.25,17.47-5.01,23.69,0,0-2.51,5.67-2.51,15.47s2.51,15.47,2.51,15.47c2.75,6.22,5.01,14.75,5.01,18.94s.29,7.62.65,7.62.65-.59.65-1.32,1.17-.77,2.61-.09,3.25,2.13.7,2.13-4.64.29-4.64.65,3.15.65,7,.65,7.71.15,8.59.33,8.35,2.67,14.64,5.27c0,0,4.67,1.92,13.85,1.92,9.8,0,15.47-2.51,15.47-2.51,6.22-2.76,16.89-5.01,23.69-5.01h664.96c6.81,0,12.38-.29,12.38-.65ZM101.82,61.13c0,18.03-15.25,33.83-15.25,33.83-4.73,4.9-14.16,8.91-20.97,8.91h-3.09c-6.81,0-7.9-3.31-2.42-7.35,0,0,26.64-19.69,26.64-43.24,0-15.39-9.8-28.98-9.8-28.98-3.98-5.52-2.88-6.57,2.45-2.33,0,0,22.44,17.85,22.44,39.17ZM35.23,103.87c-5.54,0-12.81-2.16-16.14-4.8s-10.16-16.91-10.16-23.72v-28.43c0-6.81,4.02-16.23,8.93-20.94,0,0,15.74-15.1,33.69-15.1h5.16c5.32,1.23,13.13,6.6,17.36,11.93,0,0,11.34,14.3,11.34,30.47,0,24.57-29.72,43.86-29.72,43.86-5.71,3.7-14.92,6.74-20.46,6.74ZM33.5,105.18c1.28,0,1.62.03.75.06h-1.56c-.84-.03-.48-.06.81-.06ZM33.46,1.31c11.25,0,19.16,4.05,19.16,4.05,6.06,3.1,7.46,4.99,3.1,4.21h-4.16c-17.69,0-33.45,14.27-33.45,14.27-5.05,4.57-9.17,2.75-9.17-4.04S14.14,5.45,20.49,3c0,0,4.41-1.7,12.96-1.7ZM1.31,61.13c0-8.76,1.58-12.69,1.58-12.69,2.54-6.31,4.62-5.91,4.62.9v23.59c0,6.81-2.08,7.21-4.62.9,0,0-1.58-3.94-1.58-12.69ZM13.08,100.97c-2.28-1.03-4.14-3.89-4.14-6.36s1.89-2.22,4.19.55,9.36,8.71,9.06,8.71-6.83-1.87-9.11-2.9ZM51.56,111.39c-7.8,0-10.13-.83-10.13-.83-6.41-2.28-10.56-4.09-9.21-4.01h5.36c4.34-.75,13.45-1.37,20.26-1.37h5.51c6.81,0,7.21,2.08.9,4.62,0,0-3.94,1.58-12.69,1.58Z"/>
    </g>
  </g>
</svg>